# xmcd CD database file
#
# Track frame offsets:
#	150
#	22618
#	43151
#	64588
#	98602
#	115616
#	135673
#	164078
#	199026
#	213826
#	243002
#
# Disc length: 3517 seconds
#
# Revision: 0
# Processed by: cddbd v1.5.1PL2 Copyright (c) Steve Scherf et al.
# Submitted via: CDex 1.51
#
DISCID=860dbb0b
DTITLE=Jazzlinja, Sund Folkehøgskole - Påstand
DYEAR=2006
DGENRE=Jazz
TTITLE0=Visper (not)
TTITLE1=Bulldozer
TTITLE2=UFO
TTITLE3=Trance Dance
TTITLE4=Nazi Ta Meg
TTITLE5=Betweenamerica
TTITLE6=Beautiful Love
TTITLE7=Strange Meeting
TTITLE8=Påstand
TTITLE9=General Snus
TTITLE10=Kaskader av Kastanjer
EXTD=YEAR: 2006
EXTT0=
EXTT1=
EXTT2=
EXTT3=
EXTT4=
EXTT5=
EXTT6=
EXTT7=
EXTT8=
EXTT9=
EXTT10=
PLAYORDER=
